<mxfile host="app.diagrams.net" modified="2022-04-07T10:35:09.684Z" agent="5.0 (Windows NT 10.0; Win64; x64) AppleWebKit/537.36 (KHTML, like Gecko) Chrome/99.0.4844.82 Safari/537.36" etag="nbdXMc-aJodVb2ysp1au" version="17.2.3" type="github">
  <diagram id="XJIKVr2EPAVL5tjpcIaG" name="Context Diagram">
    <mxGraphModel dx="1248" dy="706" grid="1" gridSize="10" guides="1" tooltips="1" connect="1" arrows="1" fold="1" page="1" pageScale="1" pageWidth="827" pageHeight="1169" math="0" shadow="0">
      <root>
        <mxCell id="0" />
        <mxCell id="1" parent="0" />
        <mxCell id="Ufb8Q-PfnBUjeyDLYeq_-1" value="Actor" style="shape=umlActor;verticalLabelPosition=bottom;verticalAlign=top;html=1;outlineConnect=0;rounded=0;" vertex="1" parent="1">
          <mxGeometry x="30" y="20" width="30" height="60" as="geometry" />
        </mxCell>
        <mxCell id="Ufb8Q-PfnBUjeyDLYeq_-3" value="System" style="whiteSpace=wrap;html=1;aspect=fixed;" vertex="1" parent="1">
          <mxGeometry x="100" y="20" width="80" height="80" as="geometry" />
        </mxCell>
        <mxCell id="Ufb8Q-PfnBUjeyDLYeq_-4" value="Datastore" style="shape=cylinder3;whiteSpace=wrap;html=1;boundedLbl=1;backgroundOutline=1;size=15;rounded=0;" vertex="1" parent="1">
          <mxGeometry x="200" y="20" width="60" height="80" as="geometry" />
        </mxCell>
        <mxCell id="Ufb8Q-PfnBUjeyDLYeq_-5" value="Process" style="ellipse;whiteSpace=wrap;html=1;aspect=fixed;rounded=0;" vertex="1" parent="1">
          <mxGeometry x="280" y="20" width="80" height="80" as="geometry" />
        </mxCell>
        <mxCell id="Ufb8Q-PfnBUjeyDLYeq_-6" value="&lt;h1 style=&quot;font-size: 9px&quot;&gt;&lt;span style=&quot;background-color: rgb(255 , 255 , 255) ; color: rgb(51 , 51 , 51) ; font-family: &amp;#34;arial&amp;#34; ; font-weight: normal&quot;&gt;A Context Diagram provides no information about the timing or sequencing of processes It should not be confused with a flowchart or process flow which can show these things. Use a sketch style to indicate draft status. Use a key to show what is in/out of scope.&amp;nbsp;&lt;/span&gt;&lt;br&gt;&lt;/h1&gt;&lt;span style=&quot;color: rgb(51 , 51 , 51) ; font-family: &amp;#34;arial&amp;#34; ; font-size: 9px ; background-color: rgb(255 , 255 , 255)&quot;&gt;&lt;br&gt;Start by showing the system under consideration as a single high-level process. Then add the relationship that the system has with other external entities (systems, organisations, external data stores, etc.)&lt;/span&gt;" style="text;html=1;strokeColor=none;fillColor=none;spacing=5;spacingTop=-20;whiteSpace=wrap;overflow=hidden;rounded=0;fontColor=#46495D;fontSize=9;" vertex="1" parent="1">
          <mxGeometry x="560" y="20" width="246" height="110" as="geometry" />
        </mxCell>
        <mxCell id="Ufb8Q-PfnBUjeyDLYeq_-9" value="Information&lt;br&gt;Flow" style="curved=1;endArrow=classic;html=1;rounded=0;exitX=1;exitY=0.5;exitDx=0;exitDy=0;strokeColor=#788AA3;fontColor=#46495D;fontSize=8;" edge="1" parent="1">
          <mxGeometry x="0.2208" y="-17" width="50" height="50" relative="1" as="geometry">
            <mxPoint x="390" y="60" as="sourcePoint" />
            <mxPoint x="500" y="90" as="targetPoint" />
            <Array as="points">
              <mxPoint x="450" y="20" />
            </Array>
            <mxPoint x="-1" as="offset" />
          </mxGeometry>
        </mxCell>
      </root>
    </mxGraphModel>
  </diagram>
</mxfile>
